<?xml version="1.0" standalone="no"?>
<!DOCTYPE svg PUBLIC "-//W3C//DTD SVG 20010904//EN"
 "http://www.w3.org/TR/2001/REC-SVG-20010904/DTD/svg10.dtd">
<svg version="1.0" xmlns="http://www.w3.org/2000/svg"
 width="700.000000pt" height="700.000000pt" viewBox="0 0 700.000000 700.000000"
 preserveAspectRatio="xMidYMid meet">
<metadata>
Created by potrace 1.11, written by Peter Selinger 2001-2013
</metadata>
<g transform="translate(0.000000,700.000000) scale(0.100000,-0.100000)"
fill="#000000" stroke="none">
<path d="M2380 6043 c-135 -45 -512 -172 -838 -282 -607 -203 -630 -213 -655
-271 -14 -33 -17 -4471 -4 -4515 27 -85 110 -120 197 -82 47 20 368 146 385
151 6 2 17 6 25 9 15 6 137 53 370 142 63 24 169 64 235 90 66 26 154 59 195
75 41 15 134 50 205 78 l130 49 95 -33 c136 -46 1072 -374 1285 -449 99 -35
223 -78 276 -96 l95 -33 125 42 c1015 338 1556 525 1577 544 13 13 29 34 35
48 16 39 17 4485 0 4526 -15 40 -67 84 -99 85 -13 1 -30 2 -36 3 -7 1 -62 -18
-123 -42 -60 -24 -182 -70 -270 -103 -88 -33 -169 -64 -180 -69 -23 -11 -316
-124 -390 -151 -27 -9 -183 -69 -345 -132 l-295 -114 -140 49 c-77 27 -234 83
-350 123 -115 40 -295 103 -400 140 -104 37 -201 70 -215 75 -14 5 -110 38
-215 75 -104 37 -208 73 -230 80 -22 7 -76 26 -120 42 l-80 28 -245 -82z m390
-552 c47 -16 175 -61 285 -99 364 -127 597 -209 875 -307 151 -53 311 -108
355 -123 44 -15 82 -28 85 -30 6 -4 8 -3453 3 -3464 -2 -4 -74 18 -161 48 -86
31 -161 57 -167 58 -5 2 -17 6 -25 9 -8 4 -60 22 -115 41 -215 73 -311 107
-327 116 -10 6 -25 10 -33 10 -8 0 -23 4 -33 9 -9 6 -84 33 -167 61 -82 29
-186 65 -230 80 -44 16 -165 58 -268 94 -104 37 -196 70 -205 75 -16 8 -17
132 -16 1738 1 950 2 1729 3 1730 2 2 43 -11 141 -46z"/>
</g>
</svg>
